<?xml version="1.0" encoding="iso-8859-1"?>
<!-- Generator: Adobe Illustrator 18.0.0, SVG Export Plug-In . SVG Version: 6.00 Build 0)  -->
<!DOCTYPE svg PUBLIC "-//W3C//DTD SVG 1.1//EN" "http://www.w3.org/Graphics/SVG/1.1/DTD/svg11.dtd">
<svg version="1.1" id="Capa_1" xmlns="http://www.w3.org/2000/svg" xmlns:xlink="http://www.w3.org/1999/xlink" x="0px" y="0px"
	 viewBox="0 0 56 56" style="enable-background:new 0 0 56 56;" xml:space="preserve">
<g>
	<path d="M27.292,43.706c0.092,0.093,0.203,0.166,0.326,0.217C27.74,43.973,27.87,44,28,44s0.26-0.027,0.382-0.077
		c0.123-0.051,0.233-0.124,0.326-0.217l11.999-11.999c0.391-0.391,0.391-1.023,0-1.414s-1.023-0.391-1.414,0L29,40.586V5
		c0-0.553-0.448-1-1-1s-1,0.447-1,1v35.586L16.707,30.293c-0.391-0.391-1.023-0.391-1.414,0s-0.391,1.023,0,1.414L27.292,43.706z"/>
	<path d="M55,38c-0.552,0-1,0.447-1,1v11H2V39c0-0.553-0.448-1-1-1s-1,0.447-1,1v13h56V39C56,38.447,55.552,38,55,38z"/>
</g>
<g>
</g>
<g>
</g>
<g>
</g>
<g>
</g>
<g>
</g>
<g>
</g>
<g>
</g>
<g>
</g>
<g>
</g>
<g>
</g>
<g>
</g>
<g>
</g>
<g>
</g>
<g>
</g>
<g>
</g>
</svg>
